<svg xmlns="http://www.w3.org/2000/svg" xmlns:xlink="http://www.w3.org/1999/xlink" xmlns:inkscape="http://www.inkscape.org/namespaces/inkscape" version="1.1" width="1440" height="810" viewBox="0 0 1440 810">
<defs>
<clipPath id="clip_0">
<path transform="matrix(.24,0,0,.24,0,0)" d="M0 0H6000V3375H0Z" clip-rule="evenodd"/>
</clipPath>
<clipPath id="clip_1">
<path transform="matrix(.24,0,0,.24,0,0)" d="M0 0H6000V3375H0Z" clip-rule="evenodd"/>
</clipPath>
<clipPath id="clip_2">
<path transform="matrix(.24,0,0,.24,0,0)" d="M2130.8868 789.9648H3868.3868V2583.7149H2130.8868Z" clip-rule="evenodd"/>
</clipPath>
<clipPath id="clip_3">
<path transform="matrix(.24,0,0,.24,0,0)" d="M0 0H6000V3375H0Z" clip-rule="evenodd"/>
</clipPath>
<clipPath id="clip_4">
<path transform="matrix(.24,0,0,.24,628.56,219.12)" d="M0 0H875V1549H0Z" clip-rule="evenodd"/>
</clipPath>
</defs>
<g>
<g clip-path="url(#clip_0)">
<path transform="matrix(.75,0,0,.75,0,0)" d="M0 0H1920V1080H0Z" fill="#ffffff"/>
</g>
<g clip-path="url(#clip_1)">
<path transform="matrix(.75,0,0,.75,0,0)" d="M0 0H1920V1080H0Z" fill="#ffffff"/>
</g>
<g clip-path="url(#clip_2)">
<path transform="matrix(2.2799345,0,0,2.2791563,512.55276,189.80315)" d="M178.331 66.29C178.472 66.714008 178.61699 67.137 178.75099 67.563 178.61699 67.139 178.47199 66.714008 178.331 66.29Z"/>
<path transform="matrix(2.2799345,0,0,2.2791563,512.55276,189.80315)" d="M177.357 63.521C177.69899 64.445 178.023 65.367 178.33 66.29 178.021 65.362 177.699 64.439 177.357 63.521Z"/>
<path transform="matrix(2.2799345,0,0,2.2791563,512.55276,189.80315)" d="M176.563 61.458C176.84 62.142 177.099 62.831 177.35701 63.521 177.102 62.833 176.837 62.145 176.563 61.458Z"/>
<path transform="matrix(2.2799345,0,0,2.2791563,512.55276,189.80315)" d="M179.262 69.256C179.547 70.23499 179.829 71.215999 180.07599 72.202999 179.827 71.225 179.551 70.241 179.262 69.256Z"/>
<path transform="matrix(2.2799345,0,0,2.2791563,512.55276,189.80315)" d="M180.204 73.202C179.717 71.39101 179.338 69.579 178.76599 67.83501 178.221 66.08001 177.676 64.32201 176.97699 62.58201 176.68399 61.76201 176.35599 60.94801 176.00899 60.12901 176.08599 60.31001 176.17198 60.48801 176.24799 60.67001 175.17398 58.05101 173.96399 55.44101 172.60199 52.86901 169.221 46.52501 164.89499 40.46501 159.879 35.06701 158.037 33.10701 156.545 30.995009 154.622 28.873009 153.692 27.77801 152.603 26.748009 151.368 25.69101 150.15399 24.609009 148.666 23.66601 146.969 22.72901 162.177 34.91901 173.719 51.862009 179.056 70.350009 179.321 70.923007 179.833 72.45601 180.226 74.16801 180.61 75.88401 181.061 77.72301 181.283 78.907009 181.153 77.911 180.968 76.948009 180.77 76.004009 180.57901 75.05501 180.39 74.12201 180.205 73.201007L180.204 73.202Z"/>
<path transform="matrix(2.2799345,0,0,2.2791563,512.55276,189.80315)" d="M178.75 67.563C178.928 68.128009 179.096 68.692 179.261 69.256008 179.097 68.69 178.927 68.12601 178.75 67.563Z"/>
<path transform="matrix(2.2799345,0,0,2.2791563,512.55276,189.80315)" d="M176.247 60.67C176.355 60.932 176.458 61.195 176.56299 61.457998 176.45699 61.195997 176.35599 60.931997 176.247 60.67Z"/>
<path transform="matrix(2.2799345,0,0,2.2791563,512.55276,189.80315)" d="M182.374 95.726C182.331 97.103 182.219 98.494998 182.15399 99.906 182.213 98.609 182.32999 97.188999 182.374 95.726Z"/>
<path transform="matrix(2.2799345,0,0,2.2791563,512.55276,189.80315)" d="M182.374 95.726C182.38899 95.264 182.39499 94.804 182.39 94.345 182.395 94.808 182.388 95.269008 182.374 95.726Z"/>
<path transform="matrix(2.2799345,0,0,2.2791563,512.55276,189.80315)" d="M111.76 10.614C111.166 10.472 110.57 10.339001 109.969 10.22 110.562007 10.344 111.163 10.483 111.76 10.614Z"/>
<path transform="matrix(2.2799345,0,0,2.2791563,512.55276,189.80315)" d="M124.747 14.301C120.492008 12.695999 116.089008 11.561999 111.759 10.613 113.399 11.004 115.01601 11.463 116.628009 11.901 118.795009 12.608 120.967 13.254 123.061008 14.096 125.185009 14.853 127.22201 15.8029999 129.26902 16.687 131.27002 17.68 133.281 18.621 135.195 19.733 136.272 20.223999 137.33602 20.701 138.371 21.222 134.251 18.411 129.59 16.102002 124.746 14.3L124.747 14.301Z"/>
<path transform="matrix(2.2799345,0,0,2.2791563,512.55276,189.80315)" d="M164.004 46.163C161.65599 42.684 158.852 39.333 155.789 36.149 152.735 32.952 149.308 30.026999 145.694 27.428997 149.321 30.131997 152.724 33.072 155.765 36.250997 158.814 39.416997 161.618 42.711996 164.003 46.162996L164.004 46.163Z"/>
<path transform="matrix(2.2799345,0,0,2.2791563,512.55276,189.80315)" d="M48.361 38.834C46.973 39.826 45.591 40.627 44.362 41.528 43.728 41.959 43.107999 42.38 42.495 42.797 41.897 43.238 41.305 43.673 40.712999 44.109 40.435998 44.59 40.094999 45.664 39.352998 46.503004 38.563997 47.304 37.753 48.061 37.045 48.889005 36.334 49.715005 35.629999 50.527006 34.956998 51.349004 37.586999 48.38 40.361997 45.641004 43.231996 43.092004 46.118997 40.558004 49.168996 38.305006 52.266996 36.208005 51.566995 36.438005 50.916997 36.685007 50.275995 36.865007 49.592996 37.735006 48.686994 38.387006 48.36199 38.833005L48.361 38.834Z"/>
<path transform="matrix(2.2799345,0,0,2.2791563,512.55276,189.80315)" d="M94.16 187.772C94.54301 187.794 94.937007 187.812 95.367008 187.817 94.968 187.807 94.563 187.787 94.16 187.772Z"/>
<path transform="matrix(2.2799345,0,0,2.2791563,512.55276,189.80315)" d="M91.325 188.345C93.474 188.269 95.445 188.102 97.06 187.858 95.202999 188.108 93.283 188.26201 91.325 188.345Z"/>
<path transform="matrix(2.2799345,0,0,2.2791563,512.55276,189.80315)" d="M80.882 3.465C82.073009 3.3109999 83.267009 3.192 84.461009 3.083 84.30701 3.0939999 84.15501 3.1 84.00001 3.113 82.978008 3.228 81.94001 3.346 80.882 3.465Z"/>
<path transform="matrix(2.2799345,0,0,2.2791563,512.55276,189.80315)" d="M103.143 13.849C102.016 13.606 100.398998 13.333 100.346 13.073 100.9 12.851 101.613 12.688 102.424 12.566 105.11 12.745 107.79201 13.019 110.454 13.429 110.08 13.356 109.713008 13.285 109.336 13.212L107.393 12.9 105.479 12.709C104.548999 12.625999 103.644 12.542 102.766 12.518 105.316 12.181999 108.726 12.221999 111.463 12.229 101.515 9.859 91.049999 9.439 80.840999 10.89 70.63799 12.408 60.713998 15.808001 51.735998 20.831002 58.664999 17.389002 65.92799 14.914001 73.062999 13.925001 60.094995 16.848002 47.701997 22.746003 36.997999 31.164002 31.524998 35.934003 26.575997 41.277 22.350998 47.125 18.149998 52.986 14.547998 59.261 11.748998 65.873 11.932998 64.623 12.368998 63.280004 12.852998 61.837 10.797997 66.479007 9.138998 71.284008 7.8479979 76.173007 7.555998 77.692 7.4269979 79.241008 7.2509977 80.768009 7.2509977 80.205 7.3619978 78.87 7.3849976 77.909008 3.6519974 93.109 3.7319973 109.15 7.7769978 123.649 7.4159977 122.497 7.0579979 121.983 6.7649977 121.48 6.9589974 122.268009 7.2229979 123.045009 7.4609978 123.832 7.8259975 124.872 8.145998 125.925 8.529998 126.948 8.911998 127.97 9.2909979 128.984 9.662998 129.981 9.237998 128.994 8.840999 127.982 8.457998 126.96001 8.082998 125.935009 7.7939984 124.87601 7.4619987 123.83301 7.1689984 122.98301 6.8719985 122.130008 6.6419985 121.27301 6.366998 120.79901 6.131998 120.24601 6.0209987 119.12001 5.7149984 118.13001 5.5009987 117.13901 5.2839987 116.17701 5.0729987 115.21401 4.8539988 114.281009 4.6939985 113.37901 4.4309985 111.56702 4.188998 109.91001 4.1729986 108.48402 4.0219986 103.05901 3.9889985 97.821018 4.2669985 92.74101 4.5739986 87.67501 5.1919987 82.74401 6.6939985 78.25901 7.3439986 76.14701 7.4559986 76.75801 7.3849985 77.91101 7.5169985 77.33001 7.6949985 76.75801 7.847998 76.17401L8.314999 73.53101C8.497998 72.654018 8.727999 71.78601 8.947999 70.91101 9.363999 69.15001 9.975999 67.43901 10.626999 65.724018 12.233999 61.971017 14.019999 58.308015 16.135998 54.865015 16.524998 54.186014 16.879998 53.483015 17.304999 52.821016 17.102 53.157014 16.915999 53.510015 16.736998 53.860017 22.193997 45.088018 29.104998 37.408018 36.997999 31.164017 41.533998 27.245017 46.473 23.767018 51.735998 20.831017 41.926996 25.786017 32.999998 32.922018 25.451996 40.930017 27.570996 37.905015 30.145997 35.012018 32.926996 32.177019 35.778997 29.418017 38.873994 26.743018 42.252996 24.404019 37.822996 27.334019 33.640996 30.739018 29.791995 34.48502 26.720993 37.20002 23.824994 40.11802 21.650994 42.04102 25.104994 38.023019 28.122994 34.794019 31.001994 31.75202 24.195994 37.81202 18.091994 44.926019 13.141993 52.99702 15.808992 48.59702 18.722992 44.12902 22.093993 39.99502 25.442994 35.85202 29.287993 32.090024 33.485994 29.097023 32.68199 30.002024 31.810994 30.824023 31.001994 31.752024 43.36199 20.825024 58.124994 13.289024 73.73399 9.892023 72.65499 9.957023 71.493999 10.0180239 70.31799 10.259023 69.13799 10.483023 67.911998 10.761023 66.65299 11.077023 65.410999 11.447022 64.14099 11.865023 62.85099 12.302023 61.56399 12.746023 60.291994 13.305023 58.99699 13.825023 53.84899 16.019022 48.85399 18.796023 44.33099 20.904023 47.99099 18.450022 51.89799 16.242022 56.01799 14.399022 58.04999 13.414022 60.18599 12.638022 62.30499 11.813023 64.46199 11.085023 66.61799 10.329022 68.83799 9.758022 71.03199 9.097022 73.29399 8.672022 75.53799 8.176023 77.806987 7.8010227 80.07198 7.3740227 82.36899 7.1580226 84.65499 6.852022 86.96199 6.773022 89.26099 6.6220228 91.56599 6.6090228 93.86999 6.501023 96.16898 6.6490228 100.76998 6.7810227 105.34898 7.3340227 109.845989 8.157022 114.35599 8.936023 118.75598 10.158022 123.04498 11.565022 131.61699 14.426023 139.63898 18.443024 146.84398 23.250023 137.04798 15.796022 125.71498 10.286023 113.461978 6.7560236 114.61098 7.1110236 115.85898 7.436023 117.14998 7.7530238 118.44098 8.068024 119.74898 8.478024 121.05698 8.837024 116.92397 7.4190237 112.78497 6.467024 108.58198 5.623024 107.52298 5.457024 106.461978 5.290024 105.39498 5.122024L103.78698 4.882024C103.24698 4.828024 102.70398 4.774024 102.15998 4.7200238 101.070987 4.6170237 99.97398 4.4990236 98.86398 4.4140236 97.75198 4.3680236 96.62898 4.3220236 95.49198 4.2750236 95.51598 4.2560236 95.55998 4.2430236 95.596988 4.2280237 90.498989 4.0730235 85.36498 4.1900236 80.261989 4.7790238 75.16399 5.3730237 70.09199 6.302024 65.11699 7.625024 60.14299 8.9520239 55.28999 10.704023 50.59099 12.776024 45.877988 14.825024 41.37399 17.307024 37.10099 20.090023 37.80099 19.330023 38.49799 18.638024 39.208993 18.034024 39.93399 17.451024 40.65699 16.933024 41.373994 16.468024 42.79299 15.514023 44.24399 14.866023 45.63999 14.296023 47.026994 13.709023 48.40699 13.283024 49.748994 12.836023 51.081995 12.371023 52.37699 11.888023 53.680994 11.317023 60.68199 7.9420235 68.20099 5.484023 75.746997 4.1720235 80.31 3.3470233 84.86299 2.8990234 89.312999 2.7550233 87.69399 2.8170233 86.076999 2.9340234 84.461 3.0820232 85.327999 3.021023 86.188999 2.9820233 87.039 2.9370232 89.04 2.8020232 91.006008 2.8580232 92.97 2.8940232 94.935 2.918023 96.899 3.162023 98.904 3.3190232 99.905 3.439023 100.915 3.596023 101.941 3.7430232 102.966 3.8970233 104.009 4.031023 105.062007 4.268023 103.759 4.282023 101.735 4.172023 99.867008 4.013023 97.998 3.888023 96.273 3.927023 95.59801 4.228023 107.170009 4.595023 118.602008 6.981023 129.27501 10.989023 135.65102 13.582024 137.173 14.001023 136.639 13.046023 136.371 12.570024 135.53202 11.851024 134.434 11.088023 133.339 10.321023 131.994 9.489023 130.675 8.930023 117.575 3.002 103.684-.013 89.938 0 76.198009 .002 62.461008 3.099 50.249006 9.56 38.992006 15.965 28.777005 24.218 20.519005 34.115 19.302006 35.464 17.916005 36.910005 16.653006 38.518 16.010006 39.312 15.350006 40.107004 14.723005 40.919004 14.123005 41.752004 13.526005 42.579004 12.944005 43.387 10.646005 46.644 8.859005 49.787004 7.978005 51.718004 3.674 62.132 .9330001 73.383 .209 84.978-.51199999 96.563999 .61300006 108.440998 3.8320003 120.095 5.165 125.327 7.0030004 130.521 9.346001 135.523 11.694 140.523 14.522001 145.336 17.751 149.86 24.206 158.914 32.288 166.766 41.198999 172.895 50.094999 179.05501 59.852998 183.44101 69.496 185.919 76.997 187.89402 84.434009 188.639 91.325008 188.345 88.895008 188.431 86.23701 188.401 83.57201 188.218 82.32101 188.098 81.05701 188.048 79.838008 187.852 78.618007 187.666 77.420009 187.483 76.267009 187.306 73.994 186.807 71.896 186.375 70.241008 185.78 71.052 185.91 71.84801 186.093 72.66501 186.18199 71.865009 185.92499 70.28001 185.41399 68.53901 184.85399 66.77201 184.27199 64.89501 183.54 63.63101 183.02899 64.81601 183.327 66.087009 183.827 67.35901 184.32599L64.81701 183.31899C67.26201 184.13999 70.30001 185.10199 73.50701 185.85199 75.11101 186.22499 76.74001 186.609 78.363018 186.853 79.17101 186.98999 79.971019 187.12599 80.75401 187.259 81.544017 187.35 82.31702 187.438 83.06702 187.524 89.072017 188.188 93.57902 187.952 92.60702 187.926 91.64902 187.846 86.611019 187.754 80.33102 186.528 74.04902 185.354 66.61401 182.972 60.776018 180.139 65.92201 182.138 71.613018 184.16802 77.556018 185.54901 83.07501 186.865 88.77502 187.561 94.15801 187.77101 93.334018 187.723 92.57901 187.64601 91.76201 187.58002 91.15901 187.52503 90.52301 187.46701 89.80001 187.40003 89.07001 187.30002 88.25301 187.18802 87.28801 187.05603 82.41801 186.36103 77.62301 185.28003 73.00201 183.72704 68.37201 182.22304 64.268009 180.73204 60.566007 178.39104L59.461008 177.77603C58.698007 177.40804 57.932008 177.14904 57.171007 176.74904 55.544008 175.74105 54.590005 175.09004 53.598009 174.40505 52.629007 173.67905 51.56801 173.01505 49.777009 171.90805 49.784009 171.82305 49.939008 171.86705 50.161008 171.97106 49.080007 171.28206 47.500009 170.05005 46.288007 169.29805 46.313009 169.13105 46.341009 168.96706 46.180006 168.68906 39.115007 162.85306 33.118005 155.80806 28.222004 148.09305 26.773005 145.79206 25.459004 143.45806 24.253005 141.11305 23.731005 140.11806 23.173005 139.12906 22.675004 138.09105 22.204003 137.04206 21.726004 135.97805 21.240004 134.89604 20.783003 133.80704 19.982005 133.02205 19.660004 132.55405 18.787005 129.58306 18.128005 126.58205 17.374005 123.083049 17.125004 122.58105 16.836005 121.45405 16.327004 120.44305 16.340004 119.75504 16.403004 119.01305 16.394003 118.25905 15.541003 113.87905 15.043003 109.500049 14.936003 105.153049L14.878003 105.169048C14.608003 100.85104 14.999003 95.569049 15.721004 90.79704 15.924004 89.60604 16.040003 88.42804 16.254004 87.31304 16.401003 86.50604 16.525004 85.73204 16.636004 84.975048L16.639004 84.96604C16.846005 84.09404 17.150004 83.24404 17.418004 82.38804 17.705004 81.53704 17.923003 80.67004 18.252003 79.83304 17.961003 80.03904 17.676003 80.032039 17.394003 80.02504 17.399003 80.64104 17.252003 81.33004 17.082003 82.01304 17.219002 80.852039 17.281002 79.79004 17.298003 78.90404 17.784003 78.185039 18.246003 77.41304 18.687003 76.59304 19.171002 75.78604 19.646002 74.93504 20.099003 74.04104 21.850003 69.463039 24.043004 65.05304 26.650004 60.86704 26.692004 60.40904 26.286004 60.577039 26.091004 60.51704 26.420004 60.07704 26.739005 59.63104 27.084004 59.201044L28.157004 57.936044C28.872004 57.094045 29.580004 56.25104 30.353005 55.458044 32.689004 52.29404 35.321004 49.317045 38.198007 46.55204 38.769006 45.79804 39.285009 44.98204 39.827009 44.18904 40.40701 44.03604 41.044008 43.73704 41.723009 43.32404 42.834009 42.33704 44.03901 41.459039 45.20001 40.51304 46.01801 39.92104 46.995008 39.20604 48.07201 38.36404 49.19101 37.58004 50.41201 36.66404 51.76801 35.74904 54.47501 33.90604 57.67401 31.995039 61.04401 30.187039 61.48001 29.764039 61.82301 29.40804 62.09401 29.346039 64.07201 28.39004 66.05701 27.645039 67.975009 26.94904 74.518009 24.24104 80.95401 22.59404 84.60701 21.84204 86.77101 21.21304 84.39701 20.70504 81.45301 20.280039 79.97201 20.12304 78.38301 19.955039 77.20601 19.830039 76.02501 19.719038 75.24801 19.565039 75.44301 19.306038 75.99701 18.781039 76.63601 18.307038 77.35401 17.870038 78.08001 17.472037 78.88701 17.118037 79.76701 16.788037 80.64601 16.452036 81.599018 16.151038 82.63201 15.9370369 83.66301 15.713037 84.75701 15.461037 85.92401 15.287037 90.599018 14.564037 96.306018 14.307037 103.058017 14.244037 104.90601 14.324037 104.265018 14.131037 103.141017 13.848037L103.143 13.849ZM94.575 2.7299996C95.67899 2.7539995 96.777 2.7899996 97.861 2.8489996 96.767 2.7809995 95.671 2.7539995 94.575 2.7299996ZM92.848 2.7059997C91.699 2.7039996 90.548999 2.7099996 89.4 2.7529996 90.557 2.7169996 91.707 2.7009996 92.848 2.7059997Z"/>
<path transform="matrix(2.2799345,0,0,2.2791563,512.55276,189.80315)" d="M82.779 23.691C80.843 24.221 78.644 24.684 76.382999 25.315 71.84699 26.487002 67.007999 28.108 63.287996 29.991002L63.323995 30.044C72.743 25.686 82.81099 23.232 93.11499 22.808 92.13799 22.751002 91.19499 22.662 90.288997 22.535 89.385997 22.449 88.522998 22.343 87.7 22.181 86.413997 22.684 84.730998 23.261 82.779 23.691Z"/>
<path transform="matrix(2.2799345,0,0,2.2791563,512.55276,189.80315)" d="M152.447 34.5C148.01201 30.636 143.184 27.227002 138.08101 24.341 140.94 26.046 143.64402 27.975 146.29302 29.953 147.57 31.004 148.88501 32.003999 150.12502 33.092 151.34702 34.198999 152.62201 35.245 153.77701 36.419 158.52101 40.977998 162.785 45.998 166.46901 51.406999 162.73001 45.437997 158.022 39.617998 152.447 34.5Z"/>
<path transform="matrix(2.2799345,0,0,2.2791563,512.55276,189.80315)" d="M107.614 23.56C109.755 23.841 111.872 24.305 114.006999 24.763 111.923999 24.132 109.842998 23.444 107.73499 22.999 107.74799 23.176 108.049999 23.447 107.61499 23.560002L107.614 23.56Z"/>
<path transform="matrix(2.2799345,0,0,2.2791563,512.55276,189.80315)" d="M125.31 28.347C126.784 28.959 128.274 29.561 129.722 30.28 129.063 29.854 128.518 29.431 128.138 29.02 127.169 28.834 126.234 28.608 125.31 28.347Z"/>
<path transform="matrix(2.2799345,0,0,2.2791563,512.55276,189.80315)" d="M151.268 43.693C151.08301 43.475004 150.649 43.234 150.08301 42.951 151.134 43.764 152.108 44.676 153.145 45.528 154.164 46.399 155.10701 47.342 156.089 48.237 155.334 47.486 154.563 46.72 153.779 45.94 152.95601 45.203 152.11801 44.454 151.268 43.692998V43.693Z"/>
</g>
<g clip-path="url(#clip_3)">
<g>
<g clip-path="url(#clip_4)">
<text xml:space="preserve" transform="matrix(4.370169 0 0 4.370169 628.6353 193.0468)" font-size="69.33" font-family="SergioTrendy"><tspan y="72" x="0">E</tspan></text>
</g>
</g>
</g>
<path transform="matrix(1,0,0,-1,0,817.92)" d="M511.4128 197.51155H928.58718V628.3285H511.4128Z" fill-opacity="0"/>
</g>
</svg>
