<svg width="1920" height="1080" viewBox="0 0 1920 1080" fill="none" xmlns="http://www.w3.org/2000/svg">
<g clip-path="url(#clip0_1_87)">
<mask id="mask0_1_87" style="mask-type:luminance" maskUnits="userSpaceOnUse" x="0" y="0" width="1920" height="1080">
<path d="M0 1080H1920V-3.21865e-05H0V1080Z" fill="white"/>
</mask>
<g mask="url(#mask0_1_87)">
<mask id="mask1_1_87" style="mask-type:luminance" maskUnits="userSpaceOnUse" x="0" y="0" width="1920" height="1080">
<path d="M0 0H1920V1080H0V0Z" fill="white"/>
</mask>
<g mask="url(#mask1_1_87)">
<path d="M0 0H1920V1080H0V0Z" fill="white"/>
</g>
<mask id="mask2_1_87" style="mask-type:luminance" maskUnits="userSpaceOnUse" x="0" y="0" width="1920" height="1080">
<path d="M0 0H1920V1080H0V0Z" fill="white"/>
</mask>
<g mask="url(#mask2_1_87)">
<path d="M0 0H1920V1080H0V0Z" fill="white"/>
</g>
<mask id="mask3_1_87" style="mask-type:luminance" maskUnits="userSpaceOnUse" x="401" y="397" width="277" height="286">
<path d="M401.954 397.577H677.954V682.577H401.954V397.577Z" fill="white"/>
</mask>
<g mask="url(#mask3_1_87)">
<path d="M671.814 497.74C672.027 498.38 672.245 499.018 672.448 499.661C672.245 499.021 672.026 498.38 671.814 497.74Z" fill="black"/>
<path d="M670.344 493.562C670.86 494.956 671.349 496.347 671.812 497.74C671.346 496.34 670.86 494.947 670.344 493.562Z" fill="black"/>
<path d="M669.146 490.449C669.564 491.481 669.955 492.521 670.344 493.562C669.959 492.524 669.559 491.486 669.146 490.449Z" fill="black"/>
<path d="M673.219 502.215C673.649 503.692 674.074 505.172 674.447 506.662C674.071 505.186 673.655 503.701 673.219 502.215Z" fill="black"/>
<path d="M674.64 508.169C673.905 505.436 673.333 502.702 672.47 500.071C671.648 497.423 670.825 494.771 669.77 492.145C669.328 490.908 668.833 489.68 668.31 488.444C668.426 488.717 668.556 488.986 668.67 489.26C667.05 485.309 665.224 481.371 663.169 477.49C658.067 467.918 651.538 458.775 643.969 450.63C641.19 447.673 638.938 444.486 636.036 441.284C634.633 439.632 632.99 438.078 631.126 436.483C629.294 434.851 627.049 433.428 624.488 432.014C647.437 450.407 664.854 475.971 672.908 503.866C673.308 504.73 674.08 507.043 674.673 509.626C675.253 512.216 675.933 514.99 676.268 516.777C676.072 515.274 675.793 513.821 675.494 512.397C675.206 510.965 674.921 509.557 674.642 508.167L674.64 508.169Z" fill="black"/>
<path d="M672.446 499.661C672.715 500.513 672.968 501.364 673.217 502.215C672.97 501.361 672.713 500.51 672.446 499.661Z" fill="black"/>
<path d="M668.669 489.26C668.832 489.656 668.987 490.052 669.146 490.449C668.986 490.054 668.833 489.656 668.669 489.26Z" fill="black"/>
<path d="M677.915 542.154C677.85 544.231 677.681 546.331 677.583 548.46C677.672 546.504 677.848 544.361 677.915 542.154Z" fill="black"/>
<path d="M677.915 542.154C677.937 541.457 677.946 540.762 677.939 540.07C677.946 540.769 677.936 541.464 677.915 542.154Z" fill="black"/>
<path d="M571.357 413.735C570.46 413.52 569.561 413.32 568.654 413.14C569.549 413.327 570.456 413.537 571.357 413.735Z" fill="black"/>
<path d="M590.954 419.298C584.533 416.876 577.889 415.165 571.355 413.733C573.83 414.323 576.27 415.016 578.703 415.676C581.973 416.743 585.25 417.718 588.41 418.988C591.615 420.131 594.689 421.564 597.778 422.898C600.798 424.396 603.832 425.816 606.721 427.494C608.346 428.234 609.951 428.954 611.513 429.74C605.296 425.499 598.263 422.015 590.953 419.296L590.954 419.298Z" fill="black"/>
<path d="M650.194 467.372C646.651 462.123 642.42 457.067 637.797 452.262C633.189 447.439 628.017 443.025 622.564 439.105C628.037 443.184 633.172 447.62 637.761 452.416C642.362 457.193 646.595 462.165 650.194 467.372Z" fill="black"/>
<path d="M475.686 456.314C473.592 457.81 471.506 459.019 469.652 460.378C468.695 461.029 467.759 461.664 466.834 462.293C465.932 462.958 465.039 463.615 464.145 464.273C463.727 464.998 463.213 466.619 462.093 467.885C460.902 469.093 459.679 470.236 458.61 471.485C457.537 472.731 456.475 473.956 455.459 475.197C459.428 470.717 463.616 466.584 467.946 462.738C472.303 458.915 476.905 455.515 481.58 452.351C480.524 452.698 479.543 453.071 478.576 453.343C477.545 454.655 476.178 455.639 475.688 456.312L475.686 456.314Z" fill="black"/>
<path d="M544.798 681.035C545.376 681.068 545.97 681.095 546.619 681.103C546.017 681.087 545.406 681.057 544.798 681.035Z" fill="black"/>
<path d="M540.52 681.899C543.763 681.785 546.737 681.533 549.174 681.165C546.372 681.542 543.474 681.774 540.52 681.899Z" fill="black"/>
<path d="M524.761 402.948C526.558 402.716 528.36 402.536 530.162 402.372C529.93 402.388 529.7 402.397 529.466 402.417C527.924 402.59 526.358 402.768 524.761 402.948Z" fill="black"/>
<path d="M558.354 418.616C556.653 418.249 554.213 417.837 554.133 417.445C554.969 417.11 556.045 416.864 557.269 416.68C561.322 416.95 565.369 417.363 569.386 417.982C568.822 417.872 568.268 417.765 567.699 417.655L564.767 417.184L561.879 416.896C560.475 416.77 559.11 416.644 557.785 416.607C561.633 416.1 566.778 416.161 570.909 416.171C555.897 412.595 540.105 411.962 524.699 414.151C509.303 416.441 494.327 421.571 480.779 429.15C491.235 423.957 502.195 420.223 512.962 418.73C493.393 423.141 474.692 432.04 458.539 444.741C450.28 451.938 442.812 460 436.437 468.823C430.097 477.666 424.662 487.134 420.438 497.111C420.716 495.225 421.374 493.198 422.104 491.021C419.003 498.025 416.5 505.275 414.551 512.652C414.111 514.943 413.916 517.281 413.651 519.585C413.651 518.735 413.818 516.721 413.853 515.271C408.22 538.205 408.34 562.408 414.444 584.284C413.899 582.546 413.359 581.771 412.917 581.012C413.21 582.201 413.608 583.373 413.967 584.561C414.518 586.13 415.001 587.719 415.581 589.262C416.157 590.804 416.729 592.334 417.29 593.838C416.649 592.349 416.05 590.822 415.472 589.28C414.906 587.734 414.47 586.136 413.969 584.562C413.527 583.28 413.079 581.993 412.732 580.699C412.317 579.984 411.962 579.15 411.794 577.451C411.333 575.957 411.01 574.462 410.682 573.011C410.364 571.558 410.033 570.15 409.792 568.789C409.395 566.055 409.03 563.555 409.006 561.403C408.778 553.218 408.728 545.315 409.148 537.65C409.611 530.006 410.543 522.566 412.81 515.799C413.791 512.612 413.96 513.534 413.853 515.274C414.052 514.397 414.321 513.534 414.551 512.653L415.256 508.665C415.532 507.342 415.879 506.032 416.211 504.712C416.839 502.055 417.763 499.474 418.745 496.886C421.17 491.223 423.865 485.696 427.058 480.502C427.645 479.477 428.181 478.416 428.822 477.418C428.516 477.925 428.235 478.457 427.965 478.985C436.2 465.75 446.629 454.162 458.539 444.741C465.384 438.828 472.837 433.58 480.779 429.15C465.977 436.626 452.506 447.393 441.116 459.476C444.314 454.912 448.2 450.547 452.396 446.269C456.7 442.107 461.37 438.07 466.469 434.541C459.784 438.962 453.474 444.1 447.665 449.752C443.031 453.848 438.661 458.251 435.38 461.152C440.593 455.09 445.147 450.218 449.491 445.628C439.221 454.772 430.01 465.505 422.54 477.683C426.565 471.044 430.962 464.303 436.049 458.065C441.103 451.814 446.905 446.138 453.24 441.622C452.026 442.988 450.712 444.228 449.491 445.628C468.143 429.141 490.42 417.771 513.975 412.645C512.347 412.743 510.595 412.835 508.82 413.199C507.039 413.537 505.189 413.956 503.289 414.433C501.415 414.992 499.499 415.622 497.552 416.282C495.61 416.951 493.691 417.795 491.736 418.579C483.968 421.89 476.43 426.08 469.605 429.26C475.128 425.558 481.024 422.226 487.241 419.446C490.307 417.959 493.531 416.789 496.728 415.544C499.983 414.445 503.237 413.305 506.587 412.443C509.897 411.446 513.311 410.805 516.697 410.056C520.121 409.49 523.539 408.846 527.005 408.52C530.455 408.058 533.936 407.939 537.405 407.711C540.884 407.692 544.36 407.529 547.83 407.752C554.773 407.951 561.682 408.786 568.469 410.027C575.274 411.203 581.914 413.047 588.386 415.17C601.321 419.486 613.427 425.547 624.299 432.8C609.517 421.553 592.415 413.24 573.925 407.914C575.659 408.449 577.542 408.94 579.49 409.418C581.439 409.893 583.412 410.512 585.386 411.053C579.149 408.914 572.904 407.478 566.561 406.204C564.963 405.954 563.362 405.702 561.752 405.448L559.325 405.086C558.51 405.005 557.691 404.923 556.87 404.842C555.227 404.686 553.571 404.508 551.896 404.38C550.218 404.311 548.524 404.241 546.808 404.17C546.844 404.142 546.911 404.122 546.966 404.099C539.273 403.865 531.526 404.042 523.826 404.931C516.133 405.827 508.479 407.229 500.972 409.225C493.466 411.227 486.142 413.87 479.051 416.997C471.939 420.088 465.143 423.833 458.695 428.032C459.751 426.886 460.803 425.841 461.876 424.93C462.97 424.05 464.061 423.269 465.143 422.567C467.284 421.128 469.474 420.15 471.58 419.29C473.673 418.404 475.756 417.762 477.781 417.087C479.792 416.386 481.747 415.657 483.714 414.795C494.279 409.703 505.625 405.994 517.012 404.015C523.898 402.77 530.769 402.094 537.484 401.877C535.041 401.97 532.601 402.147 530.162 402.37C531.47 402.278 532.77 402.219 534.052 402.151C537.072 401.948 540.039 402.032 543.002 402.087C545.968 402.123 548.931 402.491 551.957 402.728C553.467 402.909 554.991 403.146 556.54 403.368C558.086 403.6 559.66 403.802 561.249 404.16C559.283 404.181 556.229 404.015 553.41 403.775C550.59 403.586 547.987 403.645 546.968 404.099C564.43 404.653 581.682 408.253 597.787 414.3C607.409 418.213 609.706 418.845 608.9 417.404C608.495 416.686 607.229 415.601 605.572 414.45C603.92 413.293 601.89 412.037 599.9 411.194C580.132 402.249 559.17 397.7 538.427 397.72C517.693 397.723 496.964 402.396 478.535 412.144C461.548 421.808 446.134 434.261 433.672 449.193C431.836 451.229 429.744 453.411 427.838 455.837C426.868 457.035 425.872 458.234 424.926 459.46C424.021 460.716 423.12 461.964 422.241 463.183C418.774 468.098 416.077 472.84 414.748 475.753C408.253 491.466 404.117 508.442 403.024 525.937C401.936 543.418 403.634 561.338 408.491 578.922C410.503 586.816 413.276 594.653 416.812 602.2C420.355 609.744 424.623 617.006 429.495 623.832C439.236 637.493 451.432 649.34 464.879 658.588C478.303 667.882 493.028 674.5 507.58 678.239C518.899 681.219 530.121 682.343 540.52 681.899C536.853 682.029 532.842 681.984 528.821 681.708C526.933 681.527 525.025 681.451 523.186 681.155C521.345 680.875 519.537 680.599 517.797 680.332C514.367 679.579 511.201 678.927 508.704 678.029C509.928 678.225 511.129 678.501 512.362 678.636C511.154 678.248 508.763 677.477 506.135 676.632C503.469 675.754 500.637 674.649 498.729 673.878C500.517 674.328 502.435 675.082 504.355 675.835L500.519 674.316C504.208 675.555 508.793 677.006 513.632 678.138C516.053 678.701 518.511 679.28 520.96 679.648C522.179 679.855 523.387 680.06 524.568 680.261C525.76 680.398 526.927 680.531 528.059 680.661C537.12 681.662 543.921 681.306 542.455 681.267C541.009 681.146 533.406 681.008 523.93 679.158C514.45 677.386 503.231 673.792 494.421 669.518C502.186 672.534 510.774 675.597 519.742 677.681C528.071 679.666 536.672 680.716 544.795 681.033C543.552 680.961 542.412 680.845 541.179 680.745C540.269 680.662 539.31 680.575 538.219 680.473C537.117 680.323 535.884 680.154 534.428 679.954C527.079 678.906 519.843 677.275 512.87 674.932C505.883 672.662 499.69 670.413 494.104 666.881L492.437 665.953C491.285 665.397 490.129 665.007 488.981 664.403C486.526 662.882 485.086 661.9 483.589 660.866C482.127 659.771 480.526 658.769 477.823 657.099C477.834 656.971 478.068 657.037 478.403 657.194C476.771 656.154 474.387 654.295 472.558 653.161C472.596 652.909 472.638 652.661 472.395 652.242C461.734 643.436 452.684 632.807 445.296 621.166C443.11 617.694 441.127 614.173 439.307 610.635C438.519 609.133 437.677 607.641 436.926 606.075C436.215 604.492 435.494 602.887 434.76 601.254C434.071 599.611 432.862 598.427 432.376 597.721C431.059 593.238 430.064 588.71 428.926 583.431C428.551 582.673 428.114 580.973 427.346 579.447C427.366 578.409 427.461 577.29 427.447 576.152C426.16 569.543 425.409 562.936 425.247 556.377L425.16 556.401C424.752 549.886 425.342 541.917 426.432 534.717C426.738 532.92 426.913 531.142 427.236 529.46C427.458 528.242 427.645 527.074 427.813 525.932L427.817 525.919C428.13 524.603 428.588 523.321 428.993 522.029C429.426 520.745 429.755 519.437 430.251 518.174C429.812 518.485 429.382 518.474 428.957 518.464C428.964 519.393 428.742 520.433 428.486 521.463C428.692 519.711 428.786 518.109 428.812 516.772C429.545 515.687 430.242 514.523 430.908 513.285C431.638 512.068 432.355 510.784 433.038 509.435C435.681 502.527 438.99 495.874 442.924 489.558C442.987 488.867 442.375 489.12 442.08 489.03C442.577 488.366 443.058 487.693 443.579 487.044L445.198 485.135C446.277 483.865 447.345 482.593 448.512 481.396C452.037 476.622 456.009 472.131 460.35 467.959C461.212 466.821 461.991 465.59 462.808 464.393C463.684 464.163 464.645 463.711 465.67 463.088C467.346 461.599 469.164 460.274 470.916 458.847C472.151 457.954 473.625 456.875 475.25 455.605C476.939 454.422 478.781 453.04 480.828 451.659C484.913 448.878 489.74 445.995 494.825 443.267C495.483 442.629 496.001 442.092 496.41 441.998C499.395 440.556 502.39 439.431 505.284 438.381C515.158 434.295 524.87 431.81 530.382 430.676C533.648 429.727 530.065 428.96 525.623 428.319C523.388 428.082 520.99 427.829 519.214 427.64C517.432 427.473 516.259 427.24 516.554 426.849C517.39 426.057 518.354 425.342 519.437 424.683C520.533 424.082 521.751 423.548 523.079 423.05C524.405 422.543 525.843 422.089 527.402 421.766C528.958 421.428 530.609 421.048 532.37 420.785C539.424 419.695 548.036 419.307 558.225 419.212C561.014 419.332 560.047 419.041 558.351 418.614L558.354 418.616ZM545.424 401.839C547.09 401.875 548.747 401.93 550.383 402.019C548.732 401.916 547.078 401.875 545.424 401.839ZM542.818 401.803C541.084 401.8 539.349 401.809 537.615 401.874C539.361 401.819 541.096 401.795 542.818 401.803Z" fill="black"/>
<path d="M527.624 433.466C524.702 434.265 521.384 434.964 517.972 435.916C511.127 437.684 503.825 440.13 498.211 442.971L498.266 443.051C512.479 436.476 527.672 432.773 543.221 432.133C541.747 432.047 540.324 431.913 538.956 431.721C537.594 431.592 536.292 431.432 535.05 431.187C533.109 431.946 530.569 432.817 527.624 433.466Z" fill="black"/>
<path d="M632.754 449.774C626.062 443.944 618.776 438.801 611.076 434.446C615.39 437.019 619.47 439.929 623.468 442.914C625.395 444.5 627.379 446.008 629.25 447.65C631.094 449.32 633.018 450.898 634.761 452.67C641.92 459.549 648.354 467.123 653.914 475.284C648.271 466.278 641.167 457.497 632.754 449.774Z" fill="black"/>
<path d="M565.1 433.268C568.331 433.692 571.526 434.392 574.747 435.083C571.604 434.131 568.464 433.093 565.283 432.421C565.302 432.688 565.757 433.097 565.1 433.268Z" fill="black"/>
<path d="M591.804 440.491C594.028 441.414 596.277 442.322 598.462 443.407C597.467 442.764 596.645 442.126 596.071 441.506C594.609 441.225 593.198 440.884 591.804 440.491Z" fill="black"/>
<path d="M630.975 463.645C630.696 463.316 630.041 462.952 629.187 462.525C630.773 463.752 632.243 465.128 633.808 466.414C635.345 467.728 636.768 469.151 638.25 470.501C637.111 469.368 635.947 468.212 634.764 467.035C633.522 465.923 632.258 464.793 630.975 463.645Z" fill="black"/>
</g>
<mask id="mask4_1_87" style="mask-type:luminance" maskUnits="userSpaceOnUse" x="0" y="0" width="1920" height="1080">
<path d="M0 0H1920V1080H0V0Z" fill="white"/>
</mask>
<g mask="url(#mask4_1_87)">
<mask id="mask5_1_87" style="mask-type:luminance" maskUnits="userSpaceOnUse" x="479" y="416" width="140" height="248">
<path d="M479.36 416.96H618.24V663.04H479.36V416.96Z" fill="white"/>
</mask>
<g mask="url(#mask5_1_87)">
<path d="M497.101 601.577V455.886H585.028V471.536H514.743V520.764H580.475V536.414H514.743V585.926H586.166V601.577H497.101Z" fill="black"/>
</g>
<mask id="mask6_1_87" style="mask-type:luminance" maskUnits="userSpaceOnUse" x="688" y="438" width="832" height="240">
<path d="M688.32 438.4H1519.04V677.76H688.32V438.4Z" fill="white"/>
</mask>
<g mask="url(#mask6_1_87)">
<path d="M748.017 620.274C737.76 620.274 728.913 618.01 721.474 613.482C714.082 608.908 708.376 602.533 704.357 594.355C700.384 586.131 698.397 576.568 698.397 565.664C698.397 554.761 700.384 545.151 704.357 536.835C708.376 528.473 713.967 521.958 721.128 517.292C728.335 512.58 736.744 510.223 746.353 510.223C751.897 510.223 757.372 511.147 762.778 512.995C768.183 514.843 773.104 517.846 777.539 522.005C781.974 526.116 785.509 531.568 788.142 538.36C790.775 545.151 792.092 553.514 792.092 563.447V570.377H710.039V556.239H775.46C775.46 550.233 774.259 544.874 771.856 540.161C769.5 535.449 766.127 531.73 761.738 529.004C757.395 526.278 752.267 524.915 746.353 524.915C739.839 524.915 734.203 526.532 729.444 529.766C724.731 532.954 721.105 537.112 718.564 542.241C716.022 547.369 714.752 552.867 714.752 558.734V568.159C714.752 576.198 716.138 583.013 718.91 588.603C721.728 594.147 725.632 598.375 730.622 601.285C735.612 604.15 741.41 605.582 748.017 605.582C752.313 605.582 756.194 604.981 759.659 603.78C763.17 602.533 766.197 600.685 768.738 598.236C771.279 595.741 773.242 592.646 774.628 588.95L790.429 593.385C788.766 598.744 785.971 603.457 782.044 607.522C778.116 611.542 773.265 614.683 767.49 616.947C761.715 619.165 755.224 620.274 748.017 620.274ZM900.774 511.609L861.411 618.056H844.779L805.415 511.609H823.157L852.54 596.434H853.649L883.033 511.609H900.774ZM950.446 620.551C943.7 620.551 937.579 619.28 932.081 616.739C926.583 614.152 922.217 610.433 918.983 605.582C915.749 600.685 914.132 594.771 914.132 587.841C914.132 581.742 915.333 576.799 917.735 573.01C920.138 569.176 923.349 566.173 927.368 564.001C931.388 561.83 935.823 560.213 940.674 559.15C945.571 558.041 950.492 557.163 955.435 556.517C961.903 555.685 967.147 555.061 971.167 554.645C975.232 554.183 978.189 553.421 980.037 552.359C981.932 551.296 982.879 549.448 982.879 546.814V546.26C982.879 539.422 981.008 534.109 977.265 530.321C973.569 526.532 967.956 524.638 960.425 524.638C952.617 524.638 946.495 526.347 942.06 529.766C937.625 533.185 934.506 536.835 932.705 540.716L917.181 535.172C919.953 528.704 923.649 523.668 928.269 520.064C932.936 516.414 938.018 513.873 943.516 512.441C949.06 510.963 954.511 510.223 959.871 510.223C963.29 510.223 967.217 510.639 971.652 511.471C976.133 512.256 980.453 513.896 984.611 516.391C988.815 518.886 992.304 522.651 995.076 527.687C997.848 532.723 999.234 539.468 999.234 547.923V618.056H982.879V603.641H982.047C980.938 605.952 979.09 608.423 976.503 611.057C973.916 613.69 970.474 615.931 966.177 617.779C961.88 619.627 956.637 620.551 950.446 620.551ZM952.941 605.859C959.409 605.859 964.86 604.589 969.296 602.048C973.777 599.507 977.15 596.226 979.414 592.207C981.724 588.187 982.879 583.96 982.879 579.525V564.556C982.186 565.387 980.661 566.149 978.305 566.842C975.995 567.489 973.315 568.067 970.266 568.575C967.263 569.037 964.329 569.453 961.465 569.822C958.646 570.146 956.359 570.423 954.604 570.654C950.353 571.208 946.38 572.109 942.684 573.357C939.034 574.558 936.077 576.383 933.813 578.832C931.596 581.234 930.487 584.514 930.487 588.672C930.487 594.355 932.589 598.652 936.793 601.562C941.044 604.427 946.426 605.859 952.941 605.859ZM1045.44 476.127V618.056H1029.09V476.127H1045.44ZM1142.48 574.535V511.609H1158.83V618.056H1142.48V600.038H1141.37C1138.88 605.443 1135 610.04 1129.73 613.829C1124.46 617.571 1117.81 619.442 1109.77 619.442C1103.12 619.442 1097.2 617.987 1092.03 615.076C1086.85 612.119 1082.79 607.684 1079.83 601.77C1076.87 595.81 1075.4 588.303 1075.4 579.247V511.609H1091.75V578.139C1091.75 585.9 1093.92 592.091 1098.27 596.711C1102.65 601.331 1108.24 603.641 1115.04 603.641C1119.1 603.641 1123.24 602.602 1127.44 600.523C1131.69 598.444 1135.25 595.256 1138.11 590.959C1141.02 586.663 1142.48 581.188 1142.48 574.535ZM1188.79 657.974V511.609H1204.59V528.519H1206.53C1207.73 526.671 1209.4 524.315 1211.52 521.45C1213.69 518.539 1216.79 515.952 1220.81 513.688C1224.87 511.378 1230.37 510.223 1237.3 510.223C1246.26 510.223 1254.16 512.464 1261 516.946C1267.84 521.427 1273.18 527.78 1277.01 536.003C1280.85 544.227 1282.76 553.929 1282.76 565.11C1282.76 576.383 1280.85 586.154 1277.01 594.424C1273.18 602.648 1267.86 609.024 1261.07 613.552C1254.28 618.033 1246.45 620.274 1237.58 620.274C1230.74 620.274 1225.27 619.142 1221.15 616.878C1217.04 614.568 1213.88 611.958 1211.66 609.047C1209.44 606.09 1207.73 603.641 1206.53 601.701H1205.15V657.974H1188.79ZM1204.87 564.833C1204.87 572.872 1206.05 579.964 1208.4 586.108C1210.76 592.207 1214.2 596.989 1218.73 600.454C1223.26 603.872 1228.8 605.582 1235.36 605.582C1242.2 605.582 1247.9 603.78 1252.48 600.176C1257.1 596.527 1260.56 591.629 1262.87 585.485C1265.23 579.294 1266.41 572.41 1266.41 564.833C1266.41 557.348 1265.25 550.603 1262.94 544.597C1260.68 538.544 1257.24 533.763 1252.62 530.251C1248.04 526.694 1242.29 524.915 1235.36 524.915C1228.71 524.915 1223.12 526.602 1218.59 529.974C1214.06 533.301 1210.64 537.967 1208.33 543.973C1206.02 549.933 1204.87 556.886 1204.87 564.833ZM1352.34 620.274C1342.08 620.274 1333.24 618.01 1325.8 613.482C1318.41 608.908 1312.7 602.533 1308.68 594.355C1304.71 586.131 1302.72 576.568 1302.72 565.664C1302.72 554.761 1304.71 545.151 1308.68 536.835C1312.7 528.473 1318.29 521.958 1325.45 517.292C1332.66 512.58 1341.07 510.223 1350.68 510.223C1356.22 510.223 1361.7 511.147 1367.1 512.995C1372.51 514.843 1377.43 517.846 1381.86 522.005C1386.3 526.116 1389.83 531.568 1392.47 538.36C1395.1 545.151 1396.42 553.514 1396.42 563.447V570.377H1314.36V556.239H1379.78C1379.78 550.233 1378.58 544.874 1376.18 540.161C1373.82 535.449 1370.45 531.73 1366.06 529.004C1361.72 526.278 1356.59 524.915 1350.68 524.915C1344.16 524.915 1338.53 526.532 1333.77 529.766C1329.06 532.954 1325.43 537.112 1322.89 542.241C1320.35 547.369 1319.08 552.867 1319.08 558.734V568.159C1319.08 576.198 1320.46 583.013 1323.23 588.603C1326.05 594.147 1329.96 598.375 1334.95 601.285C1339.94 604.15 1345.73 605.582 1352.34 605.582C1356.64 605.582 1360.52 604.981 1363.98 603.78C1367.5 602.533 1370.52 600.685 1373.06 598.236C1375.6 595.741 1377.57 592.646 1378.95 588.95L1394.75 593.385C1393.09 598.744 1390.3 603.457 1386.37 607.522C1382.44 611.542 1377.59 614.683 1371.81 616.947C1366.04 619.165 1359.55 620.274 1352.34 620.274Z" fill="black"/>
</g>
</g>
</g>
</g>
<defs>
<clipPath id="clip0_1_87">
<rect width="1920" height="1080" fill="white"/>
</clipPath>
</defs>
</svg>
