<svg width="445" height="163" viewBox="0 0 445 163" fill="none" xmlns="http://www.w3.org/2000/svg">
<path d="M5.79545 48.8068V39.4318H71.25V48.8068H43.8068V126.705H33.2386V48.8068H5.79545Z" fill="#D55215"/>
<path d="M106.473 57.8864H114.927V104.114C114.927 108.886 113.802 113.148 111.552 116.898C109.325 120.625 106.177 123.568 102.109 125.727C98.0408 127.864 93.268 128.932 87.7908 128.932C82.3135 128.932 77.5408 127.864 73.4726 125.727C69.4044 123.568 66.2453 120.625 63.9953 116.898C61.768 113.148 60.6544 108.886 60.6544 104.114V57.8864H69.109V103.432C69.109 106.841 69.859 109.875 71.359 112.534C72.8589 115.17 74.9953 117.25 77.768 118.773C80.5635 120.273 83.9044 121.023 87.7908 121.023C91.6771 121.023 95.018 120.273 97.8135 118.773C100.609 117.25 102.745 115.17 104.223 112.534C105.723 109.875 106.473 106.841 106.473 103.432V57.8864ZM131.811 127.705V57.8864H155.402C160.856 57.8864 165.333 58.8182 168.833 60.6818C172.333 62.5227 174.924 65.0568 176.606 68.2841C178.288 71.5114 179.129 75.1818 179.129 79.2955C179.129 83.4091 178.288 87.0568 176.606 90.2387C174.924 93.4205 172.345 95.9205 168.867 97.7387C165.39 99.5341 160.947 100.432 155.538 100.432H136.447V92.7955H155.265C158.992 92.7955 161.992 92.25 164.265 91.1591C166.561 90.0682 168.22 88.5227 169.242 86.5227C170.288 84.5 170.811 82.0909 170.811 79.2955C170.811 76.5 170.288 74.0568 169.242 71.9659C168.197 69.875 166.527 68.2614 164.231 67.125C161.936 65.9659 158.902 65.3864 155.129 65.3864H140.265V127.705H131.811ZM164.674 96.3409L181.856 127.705H172.038L155.129 96.3409H164.674ZM193.217 127.705V57.8864H201.671V92.5227H202.49L233.853 57.8864H244.899L215.581 89.3864L244.899 127.705H234.671L210.399 95.25L201.671 105.068V127.705H193.217ZM301.66 57.8864H310.115V104.114C310.115 108.886 308.99 113.148 306.74 116.898C304.512 120.625 301.365 123.568 297.296 125.727C293.228 127.864 288.456 128.932 282.978 128.932C277.501 128.932 272.728 127.864 268.66 125.727C264.592 123.568 261.433 120.625 259.183 116.898C256.956 113.148 255.842 108.886 255.842 104.114V57.8864H264.296V103.432C264.296 106.841 265.046 109.875 266.546 112.534C268.046 115.17 270.183 117.25 272.956 118.773C275.751 120.273 279.092 121.023 282.978 121.023C286.865 121.023 290.206 120.273 293.001 118.773C295.796 117.25 297.933 115.17 299.41 112.534C300.91 109.875 301.66 106.841 301.66 103.432V57.8864ZM329.862 127.705H320.998L346.634 57.8864H355.362L380.998 127.705H372.134L351.271 68.9318H350.725L329.862 127.705ZM333.134 100.432H368.862V107.932H333.134V100.432ZM389.555 127.705V121.568L427.191 65.3864H389.146V57.8864H437.282V64.0227L399.646 120.205H437.691V127.705H389.555Z" fill="#D55215"/>
<path d="M268.088 2.85067C260.875 4.44267 253.963 6.69201 247.486 9.55868C244.248 10.9907 241.116 12.5787 238.11 14.312C236.606 15.1787 235.135 16.084 233.688 17.0147L232.606 17.7173L232.066 18.068L231.539 18.436C230.842 18.928 230.127 19.4067 229.467 19.9373C224.106 24.1027 219.323 28.8053 215.228 33.96C213.184 36.54 211.307 39.2267 209.604 42.0093C207.914 44.8 206.383 47.676 205.054 50.6427C206.623 47.796 208.336 45.032 210.227 42.3827C212.103 39.728 214.143 37.1787 216.336 34.7507C220.716 29.8893 225.698 25.4973 231.203 21.6693C241.938 13.7333 254.894 8.02934 269.032 4.908C283.174 1.788 298.502 1.26801 313.875 3.42401C321.562 4.49868 329.255 6.23601 336.807 8.60134C344.362 10.9667 351.772 13.96 358.91 17.508C366.042 21.0614 372.899 25.1694 379.339 29.7694C385.779 34.3694 391.806 39.46 397.298 44.944C408.287 55.9067 417.115 68.4507 423.15 81.6133C429.19 94.7747 432.434 108.549 432.599 121.901C432.872 128.604 432.367 135.227 431.13 141.652C430.514 144.865 429.708 148.028 428.72 151.127C427.742 154.231 426.578 157.268 425.239 160.229C426.79 157.375 428.171 154.423 429.372 151.391C430.564 148.353 431.574 145.235 432.398 142.049C434.043 135.676 434.906 129.024 435.003 122.239C434.835 108.609 431.524 94.5547 425.36 81.1254C419.203 67.696 410.198 54.896 398.979 43.7053C393.375 38.108 387.226 32.912 380.651 28.2187C374.078 23.524 367.082 19.332 359.804 15.7067C352.526 12.088 344.964 9.03202 337.254 6.62002C329.546 4.20535 321.692 2.43201 313.85 1.33468C307.492 0.442679 301.144 2.85419e-06 294.882 2.85419e-06C285.684 2.85419e-06 276.671 0.956004 268.088 2.85067Z" fill="url(#paint0_linear_1_21)"/>
<path d="M268.202 7.47202C254.066 9.84402 240.924 14.7907 229.972 22.1267C224.531 25.8294 219.659 30.124 215.468 34.912C213.374 37.3054 211.452 39.824 209.711 42.4507C207.975 45.08 206.422 47.816 205.054 50.6427C206.486 47.848 208.103 45.1507 209.896 42.564C211.686 39.9747 213.651 37.496 215.787 35.1467C220.054 30.4453 224.996 26.26 230.47 22.6587C241.344 15.3667 254.402 10.4547 268.451 8.09468C282.503 5.72402 297.544 5.88937 312.506 8.44804C327.475 10.9974 342.352 15.948 356.247 22.8574C370.135 29.776 383.054 38.66 394.114 49.064C405.178 59.4574 414.378 71.3587 420.959 83.9987C427.547 96.6307 431.499 110.008 432.242 123.08C432.674 129.62 432.311 136.087 431.135 142.325C429.956 148.564 427.971 154.576 425.239 160.229C426.67 157.436 427.914 154.544 428.964 151.575C430.01 148.601 430.86 145.549 431.506 142.436C432.8 136.207 433.283 129.728 432.962 123.157C432.215 109.996 428.235 96.5307 421.607 83.8214C414.984 71.1014 405.728 59.1307 394.6 48.676C383.476 38.208 370.482 29.2747 356.515 22.316C342.544 15.368 327.58 10.3894 312.523 7.8267C304.603 6.4707 296.66 5.78269 288.851 5.78269C281.822 5.78269 274.9 6.34136 268.202 7.47202Z" fill="url(#paint1_linear_1_21)"/>
<path d="M84.8711 151.658C84.8711 153.072 84.6157 154.294 84.105 155.324C83.5942 156.355 82.8936 157.149 82.0031 157.708C81.1125 158.267 80.0954 158.546 78.9517 158.546C77.808 158.546 76.7909 158.267 75.9004 157.708C75.0098 157.149 74.3092 156.355 73.7985 155.324C73.2877 154.294 73.0323 153.072 73.0323 151.658C73.0323 150.243 73.2877 149.021 73.7985 147.991C74.3092 146.96 75.0098 146.166 75.9004 145.607C76.7909 145.048 77.808 144.769 78.9517 144.769C80.0954 144.769 81.1125 145.048 82.0031 145.607C82.8936 146.166 83.5942 146.96 84.105 147.991C84.6157 149.021 84.8711 150.243 84.8711 151.658ZM83.2996 151.658C83.2996 150.496 83.1053 149.516 82.7168 148.718C82.3326 147.919 81.811 147.314 81.1518 146.904C80.497 146.493 79.7637 146.288 78.9517 146.288C78.1398 146.288 77.4042 146.493 76.745 146.904C76.0902 147.314 75.5686 147.919 75.1801 148.718C74.7959 149.516 74.6039 150.496 74.6039 151.658C74.6039 152.819 74.7959 153.799 75.1801 154.598C75.5686 155.396 76.0902 156.001 76.745 156.411C77.4042 156.822 78.1398 157.027 78.9517 157.027C79.7637 157.027 80.497 156.822 81.1518 156.411C81.811 156.001 82.3326 155.396 82.7168 154.598C83.1053 153.799 83.2996 152.819 83.2996 151.658ZM88.3873 162.134C88.1254 162.134 87.8919 162.112 87.6867 162.069C87.4815 162.03 87.3397 161.99 87.2611 161.951L87.654 160.589C88.0294 160.685 88.3611 160.72 88.6493 160.694C88.9374 160.668 89.1927 160.539 89.4154 160.307C89.6424 160.08 89.8497 159.712 90.0374 159.201L90.3255 158.415L86.6063 148.305H88.2826L91.0589 156.32H91.1637L93.94 148.305H95.6163L91.347 159.829C91.1549 160.349 90.917 160.779 90.6333 161.119C90.3495 161.464 90.02 161.72 89.6445 161.885C89.2735 162.051 88.8544 162.134 88.3873 162.134ZM103.994 154.251V148.305H105.54V158.363H103.994V156.66H103.89C103.654 157.171 103.287 157.605 102.79 157.963C102.292 158.317 101.663 158.494 100.904 158.494C100.275 158.494 99.7164 158.356 99.2275 158.081C98.7386 157.802 98.3544 157.383 98.0751 156.824C97.7957 156.261 97.656 155.551 97.656 154.696V148.305H99.2013V154.591C99.2013 155.324 99.4065 155.909 99.8168 156.346C100.232 156.782 100.76 157.001 101.401 157.001C101.786 157.001 102.176 156.902 102.574 156.706C102.975 156.51 103.311 156.208 103.582 155.802C103.857 155.396 103.994 154.879 103.994 154.251ZM109.915 152.312V158.363H108.37V148.305H109.863V149.876H109.994C110.23 149.366 110.588 148.955 111.068 148.645C111.548 148.331 112.168 148.174 112.927 148.174C113.608 148.174 114.204 148.314 114.715 148.593C115.226 148.868 115.623 149.287 115.907 149.85C116.191 150.409 116.332 151.116 116.332 151.972V158.363H114.787V152.077C114.787 151.286 114.582 150.671 114.172 150.23C113.761 149.785 113.198 149.562 112.482 149.562C111.989 149.562 111.548 149.669 111.16 149.883C110.775 150.097 110.472 150.409 110.249 150.819C110.027 151.23 109.915 151.727 109.915 152.312ZM123.242 158.572C122.299 158.572 121.487 158.35 120.806 157.904C120.125 157.459 119.602 156.846 119.235 156.064C118.868 155.283 118.685 154.39 118.685 153.386C118.685 152.365 118.873 151.463 119.248 150.682C119.628 149.896 120.156 149.283 120.833 148.842C121.514 148.397 122.308 148.174 123.216 148.174C123.923 148.174 124.561 148.305 125.128 148.567C125.695 148.829 126.16 149.196 126.523 149.667C126.885 150.138 127.11 150.688 127.197 151.317H125.652C125.534 150.859 125.272 150.453 124.866 150.099C124.464 149.741 123.923 149.562 123.242 149.562C122.64 149.562 122.112 149.719 121.658 150.034C121.208 150.344 120.857 150.782 120.603 151.35C120.355 151.913 120.23 152.574 120.23 153.334C120.23 154.111 120.352 154.787 120.597 155.364C120.846 155.94 121.195 156.387 121.644 156.706C122.098 157.025 122.631 157.184 123.242 157.184C123.644 157.184 124.008 157.114 124.336 156.975C124.663 156.835 124.94 156.634 125.167 156.372C125.394 156.11 125.556 155.796 125.652 155.429H127.197C127.11 156.023 126.894 156.558 126.549 157.033C126.208 157.505 125.757 157.88 125.193 158.16C124.635 158.435 123.984 158.572 123.242 158.572ZM132.416 158.598C131.779 158.598 131.2 158.478 130.681 158.238C130.161 157.994 129.749 157.642 129.443 157.184C129.138 156.721 128.985 156.163 128.985 155.508C128.985 154.932 129.098 154.464 129.325 154.106C129.552 153.744 129.856 153.46 130.235 153.255C130.615 153.05 131.034 152.897 131.493 152.797C131.955 152.692 132.42 152.609 132.887 152.548C133.498 152.469 133.994 152.411 134.374 152.371C134.758 152.328 135.037 152.256 135.212 152.155C135.391 152.055 135.48 151.88 135.48 151.631V151.579C135.48 150.933 135.304 150.431 134.95 150.073C134.601 149.715 134.07 149.536 133.359 149.536C132.621 149.536 132.043 149.698 131.624 150.021C131.205 150.344 130.91 150.688 130.74 151.055L129.273 150.531C129.535 149.92 129.884 149.444 130.321 149.104C130.761 148.759 131.242 148.519 131.761 148.384C132.285 148.244 132.8 148.174 133.306 148.174C133.629 148.174 134.001 148.213 134.42 148.292C134.843 148.366 135.251 148.521 135.644 148.757C136.041 148.993 136.371 149.348 136.633 149.824C136.895 150.3 137.026 150.937 137.026 151.736V158.363H135.48V157.001H135.402C135.297 157.219 135.122 157.453 134.878 157.701C134.633 157.95 134.308 158.162 133.902 158.336C133.496 158.511 133.001 158.598 132.416 158.598ZM132.652 157.21C133.263 157.21 133.778 157.09 134.197 156.85C134.62 156.61 134.939 156.3 135.153 155.92C135.371 155.54 135.48 155.141 135.48 154.722V153.308C135.415 153.386 135.271 153.458 135.048 153.524C134.83 153.585 134.577 153.639 134.289 153.687C134.005 153.731 133.728 153.77 133.457 153.805C133.191 153.836 132.975 153.862 132.809 153.884C132.407 153.936 132.032 154.021 131.683 154.139C131.338 154.253 131.058 154.425 130.844 154.657C130.635 154.884 130.53 155.193 130.53 155.586C130.53 156.123 130.729 156.529 131.126 156.804C131.528 157.075 132.036 157.21 132.652 157.21ZM141.287 154.696L141.261 152.784H141.575L145.975 148.305H147.887L143.199 153.046H143.068L141.287 154.696ZM139.846 158.363V144.952H141.392V158.363H139.846ZM146.237 158.363L142.308 153.386L143.408 152.312L148.201 158.363H146.237ZM163.286 148.305L159.567 158.363H157.996L154.276 148.305H155.953L158.729 156.32H158.834L161.61 148.305H163.286ZM169.183 158.572C168.214 158.572 167.378 158.358 166.675 157.931C165.976 157.498 165.437 156.896 165.058 156.123C164.682 155.346 164.494 154.443 164.494 153.412C164.494 152.382 164.682 151.474 165.058 150.688C165.437 149.898 165.966 149.283 166.642 148.842C167.323 148.397 168.118 148.174 169.026 148.174C169.549 148.174 170.067 148.261 170.577 148.436C171.088 148.611 171.553 148.894 171.972 149.287C172.391 149.676 172.725 150.191 172.974 150.833C173.223 151.474 173.347 152.264 173.347 153.203V153.858H165.594V152.522H171.776C171.776 151.954 171.662 151.448 171.435 151.003C171.213 150.557 170.894 150.206 170.479 149.949C170.069 149.691 169.584 149.562 169.026 149.562C168.41 149.562 167.878 149.715 167.428 150.021C166.983 150.322 166.64 150.715 166.4 151.199C166.16 151.684 166.04 152.203 166.04 152.758V153.648C166.04 154.408 166.171 155.052 166.433 155.58C166.699 156.104 167.068 156.503 167.539 156.778C168.011 157.049 168.559 157.184 169.183 157.184C169.589 157.184 169.955 157.127 170.283 157.014C170.615 156.896 170.901 156.721 171.141 156.49C171.381 156.254 171.566 155.962 171.697 155.613L173.19 156.032C173.033 156.538 172.769 156.983 172.398 157.367C172.027 157.747 171.568 158.044 171.023 158.258C170.477 158.467 169.864 158.572 169.183 158.572ZM180.36 146.393V144.952H190.418V146.393H186.201V158.363H184.577V146.393H180.36ZM195.473 158.572C194.504 158.572 193.668 158.358 192.965 157.931C192.267 157.498 191.727 156.896 191.348 156.123C190.972 155.346 190.785 154.443 190.785 153.412C190.785 152.382 190.972 151.474 191.348 150.688C191.727 149.898 192.256 149.283 192.932 148.842C193.613 148.397 194.408 148.174 195.316 148.174C195.84 148.174 196.357 148.261 196.868 148.436C197.378 148.611 197.843 148.894 198.262 149.287C198.681 149.676 199.015 150.191 199.264 150.833C199.513 151.474 199.637 152.264 199.637 153.203V153.858H191.885V152.522H198.066C198.066 151.954 197.952 151.448 197.725 151.003C197.503 150.557 197.184 150.206 196.769 149.949C196.359 149.691 195.874 149.562 195.316 149.562C194.7 149.562 194.168 149.715 193.718 150.021C193.273 150.322 192.93 150.715 192.69 151.199C192.45 151.684 192.33 152.203 192.33 152.758V153.648C192.33 154.408 192.461 155.052 192.723 155.58C192.989 156.104 193.358 156.503 193.829 156.778C194.301 157.049 194.849 157.184 195.473 157.184C195.879 157.184 196.246 157.127 196.573 157.014C196.905 156.896 197.191 156.721 197.431 156.49C197.671 156.254 197.856 155.962 197.987 155.613L199.48 156.032C199.323 156.538 199.059 156.983 198.688 157.367C198.317 157.747 197.859 158.044 197.313 158.258C196.767 158.467 196.154 158.572 195.473 158.572ZM201.988 158.363V148.305H203.481V149.824H203.586C203.769 149.326 204.101 148.923 204.581 148.613C205.061 148.303 205.603 148.148 206.205 148.148C206.318 148.148 206.46 148.15 206.631 148.154C206.801 148.159 206.93 148.165 207.017 148.174V149.746C206.965 149.732 206.845 149.713 206.657 149.687C206.473 149.656 206.279 149.641 206.074 149.641C205.585 149.641 205.149 149.743 204.764 149.949C204.385 150.149 204.083 150.429 203.861 150.787C203.643 151.14 203.533 151.544 203.533 151.998V158.363H201.988ZM210.394 144.952V158.363H208.849V144.952H210.394ZM213.224 158.363V148.305H214.77V158.363H213.224ZM214.01 146.629C213.709 146.629 213.449 146.526 213.231 146.321C213.017 146.116 212.91 145.869 212.91 145.581C212.91 145.293 213.017 145.046 213.231 144.841C213.449 144.636 213.709 144.533 214.01 144.533C214.311 144.533 214.569 144.636 214.783 144.841C215.001 145.046 215.11 145.293 215.11 145.581C215.11 145.869 215.001 146.116 214.783 146.321C214.569 146.526 214.311 146.629 214.01 146.629ZM219.041 154.696L219.014 152.784H219.329L223.729 148.305H225.641L220.953 153.046H220.822L219.041 154.696ZM217.6 158.363V144.952H219.145V158.363H217.6ZM223.991 158.363L220.062 153.386L221.162 152.312L225.955 158.363H223.991Z" fill="#393536"/>
<path d="M234.18 144.952V158.363H232.556V144.952H234.18ZM241.601 148.305V149.615H236.388V148.305H241.601ZM237.908 145.895H239.453V155.482C239.453 155.918 239.516 156.245 239.643 156.464C239.774 156.678 239.94 156.822 240.14 156.896C240.346 156.966 240.562 157.001 240.789 157.001C240.959 157.001 241.099 156.992 241.208 156.975C241.317 156.953 241.404 156.935 241.47 156.922L241.784 158.31C241.679 158.35 241.533 158.389 241.345 158.428C241.157 158.472 240.92 158.494 240.631 158.494C240.195 158.494 239.767 158.4 239.348 158.212C238.933 158.024 238.588 157.738 238.313 157.354C238.043 156.97 237.908 156.486 237.908 155.901V145.895ZM245.686 152.312V158.363H244.141V144.952H245.686V149.876H245.817C246.053 149.357 246.407 148.945 246.878 148.639C247.354 148.329 247.987 148.174 248.777 148.174C249.462 148.174 250.063 148.312 250.578 148.587C251.093 148.857 251.492 149.274 251.776 149.837C252.064 150.396 252.208 151.108 252.208 151.972V158.363H250.663V152.077C250.663 151.278 250.456 150.66 250.041 150.224C249.631 149.783 249.061 149.562 248.332 149.562C247.826 149.562 247.372 149.669 246.97 149.883C246.573 150.097 246.258 150.409 246.027 150.819C245.8 151.23 245.686 151.727 245.686 152.312ZM256.162 158.467C255.839 158.467 255.561 158.352 255.33 158.12C255.099 157.889 254.983 157.612 254.983 157.289C254.983 156.966 255.099 156.689 255.33 156.457C255.561 156.226 255.839 156.11 256.162 156.11C256.485 156.11 256.762 156.226 256.993 156.457C257.225 156.689 257.34 156.966 257.34 157.289C257.34 157.503 257.286 157.699 257.177 157.878C257.072 158.057 256.93 158.201 256.751 158.31C256.576 158.415 256.38 158.467 256.162 158.467ZM261.947 144.952V158.363H260.323V144.952H261.947ZM266.539 152.312V158.363H264.993V144.952H266.539V149.876H266.669C266.905 149.357 267.259 148.945 267.73 148.639C268.206 148.329 268.839 148.174 269.629 148.174C270.315 148.174 270.915 148.312 271.43 148.587C271.945 148.857 272.344 149.274 272.628 149.837C272.916 150.396 273.06 151.108 273.06 151.972V158.363H271.515V152.077C271.515 151.278 271.308 150.66 270.893 150.224C270.483 149.783 269.913 149.562 269.184 149.562C268.678 149.562 268.224 149.669 267.822 149.883C267.425 150.097 267.11 150.409 266.879 150.819C266.652 151.23 266.539 151.727 266.539 152.312ZM275.887 158.363V148.305H277.38V149.824H277.485C277.668 149.326 278 148.923 278.48 148.613C278.961 148.303 279.502 148.148 280.104 148.148C280.218 148.148 280.36 148.15 280.53 148.154C280.7 148.159 280.829 148.165 280.916 148.174V149.746C280.864 149.732 280.744 149.713 280.556 149.687C280.373 149.656 280.178 149.641 279.973 149.641C279.484 149.641 279.048 149.743 278.664 149.949C278.284 150.149 277.983 150.429 277.76 150.787C277.542 151.14 277.433 151.544 277.433 151.998V158.363H275.887ZM282.722 158.467C282.399 158.467 282.122 158.352 281.89 158.12C281.659 157.889 281.543 157.612 281.543 157.289C281.543 156.966 281.659 156.689 281.89 156.457C282.122 156.226 282.399 156.11 282.722 156.11C283.045 156.11 283.322 156.226 283.553 156.457C283.785 156.689 283.9 156.966 283.9 157.289C283.9 157.503 283.846 157.699 283.737 157.878C283.632 158.057 283.49 158.201 283.311 158.31C283.137 158.415 282.94 158.467 282.722 158.467ZM294.217 148.305C294.138 147.641 293.82 147.126 293.261 146.76C292.702 146.393 292.017 146.21 291.205 146.21C290.611 146.21 290.092 146.306 289.646 146.498C289.205 146.69 288.861 146.954 288.612 147.29C288.367 147.626 288.245 148.008 288.245 148.436C288.245 148.794 288.33 149.102 288.5 149.359C288.675 149.612 288.898 149.824 289.168 149.994C289.439 150.16 289.723 150.298 290.02 150.407C290.316 150.512 290.589 150.597 290.838 150.662L292.2 151.029C292.549 151.121 292.938 151.247 293.366 151.409C293.798 151.57 294.21 151.791 294.603 152.07C295 152.345 295.328 152.699 295.585 153.131C295.843 153.563 295.972 154.093 295.972 154.722C295.972 155.447 295.782 156.101 295.402 156.686C295.027 157.271 294.477 157.736 293.752 158.081C293.032 158.426 292.156 158.598 291.126 158.598C290.166 158.598 289.334 158.443 288.631 158.133C287.933 157.824 287.383 157.391 286.981 156.837C286.584 156.283 286.359 155.639 286.307 154.905H287.983C288.027 155.412 288.197 155.831 288.494 156.163C288.795 156.49 289.175 156.734 289.633 156.896C290.096 157.053 290.594 157.132 291.126 157.132C291.746 157.132 292.303 157.031 292.796 156.83C293.289 156.625 293.68 156.342 293.968 155.979C294.256 155.613 294.4 155.185 294.4 154.696C294.4 154.251 294.276 153.888 294.027 153.609C293.778 153.329 293.451 153.102 293.045 152.928C292.639 152.753 292.2 152.6 291.729 152.469L290.078 151.998C289.031 151.697 288.201 151.267 287.59 150.708C286.979 150.149 286.674 149.418 286.674 148.515C286.674 147.764 286.877 147.109 287.282 146.55C287.693 145.987 288.243 145.55 288.933 145.241C289.627 144.926 290.402 144.769 291.257 144.769C292.121 144.769 292.89 144.924 293.562 145.234C294.234 145.54 294.767 145.959 295.16 146.491C295.557 147.024 295.766 147.628 295.788 148.305H294.217ZM301.392 158.598C300.754 158.598 300.176 158.478 299.657 158.238C299.137 157.994 298.725 157.642 298.419 157.184C298.113 156.721 297.961 156.163 297.961 155.508C297.961 154.932 298.074 154.464 298.301 154.106C298.528 153.744 298.831 153.46 299.211 153.255C299.591 153.05 300.01 152.897 300.468 152.797C300.931 152.692 301.396 152.609 301.863 152.548C302.474 152.469 302.97 152.411 303.35 152.371C303.734 152.328 304.013 152.256 304.188 152.155C304.367 152.055 304.456 151.88 304.456 151.631V151.579C304.456 150.933 304.279 150.431 303.926 150.073C303.577 149.715 303.046 149.536 302.335 149.536C301.597 149.536 301.018 149.698 300.599 150.021C300.18 150.344 299.886 150.688 299.715 151.055L298.249 150.531C298.511 149.92 298.86 149.444 299.296 149.104C299.737 148.759 300.217 148.519 300.737 148.384C301.261 148.244 301.776 148.174 302.282 148.174C302.605 148.174 302.976 148.213 303.395 148.292C303.819 148.366 304.227 148.521 304.62 148.757C305.017 148.993 305.347 149.348 305.609 149.824C305.871 150.3 306.002 150.937 306.002 151.736V158.363H304.456V157.001H304.378C304.273 157.219 304.098 157.453 303.854 157.701C303.609 157.95 303.284 158.162 302.878 158.336C302.472 158.511 301.977 158.598 301.392 158.598ZM301.627 157.21C302.239 157.21 302.754 157.09 303.173 156.85C303.596 156.61 303.915 156.3 304.129 155.92C304.347 155.54 304.456 155.141 304.456 154.722V153.308C304.391 153.386 304.247 153.458 304.024 153.524C303.806 153.585 303.553 153.639 303.264 153.687C302.981 153.731 302.704 153.77 302.433 153.805C302.167 153.836 301.95 153.862 301.785 153.884C301.383 153.936 301.008 154.021 300.658 154.139C300.313 154.253 300.034 154.425 299.82 154.657C299.611 154.884 299.506 155.193 299.506 155.586C299.506 156.123 299.705 156.529 300.102 156.804C300.503 157.075 301.012 157.21 301.627 157.21ZM310.367 152.312V158.363H308.822V148.305H310.315V149.876H310.446C310.682 149.366 311.04 148.955 311.52 148.645C312 148.331 312.62 148.174 313.379 148.174C314.06 148.174 314.656 148.314 315.167 148.593C315.678 148.868 316.075 149.287 316.359 149.85C316.643 150.409 316.784 151.116 316.784 151.972V158.363H315.239V152.077C315.239 151.286 315.034 150.671 314.624 150.23C314.213 149.785 313.65 149.562 312.934 149.562C312.441 149.562 312 149.669 311.611 149.883C311.227 150.097 310.924 150.409 310.701 150.819C310.479 151.23 310.367 151.727 310.367 152.312ZM320.734 158.467C320.411 158.467 320.134 158.352 319.903 158.12C319.671 157.889 319.556 157.612 319.556 157.289C319.556 156.966 319.671 156.689 319.903 156.457C320.134 156.226 320.411 156.11 320.734 156.11C321.057 156.11 321.335 156.226 321.566 156.457C321.797 156.689 321.913 156.966 321.913 157.289C321.913 157.503 321.859 157.699 321.749 157.878C321.645 158.057 321.503 158.201 321.324 158.31C321.149 158.415 320.953 158.467 320.734 158.467ZM323.532 146.393V144.952H333.59V146.393H329.373V158.363H327.749V146.393H323.532ZM335.886 158.363V148.305H337.432V158.363H335.886ZM336.672 146.629C336.371 146.629 336.111 146.526 335.893 146.321C335.679 146.116 335.572 145.869 335.572 145.581C335.572 145.293 335.679 145.046 335.893 144.841C336.111 144.636 336.371 144.533 336.672 144.533C336.973 144.533 337.231 144.636 337.445 144.841C337.663 145.046 337.772 145.293 337.772 145.581C337.772 145.869 337.663 146.116 337.445 146.321C337.231 146.526 336.973 146.629 336.672 146.629ZM344.348 158.572C343.405 158.572 342.593 158.35 341.912 157.904C341.231 157.459 340.707 156.846 340.341 156.064C339.974 155.283 339.791 154.39 339.791 153.386C339.791 152.365 339.978 151.463 340.354 150.682C340.734 149.896 341.262 149.283 341.938 148.842C342.619 148.397 343.414 148.174 344.322 148.174C345.029 148.174 345.666 148.305 346.234 148.567C346.801 148.829 347.266 149.196 347.629 149.667C347.991 150.138 348.216 150.688 348.303 151.317H346.758C346.64 150.859 346.378 150.453 345.972 150.099C345.57 149.741 345.029 149.562 344.348 149.562C343.746 149.562 343.217 149.719 342.763 150.034C342.314 150.344 341.962 150.782 341.709 151.35C341.46 151.913 341.336 152.574 341.336 153.334C341.336 154.111 341.458 154.787 341.703 155.364C341.952 155.94 342.301 156.387 342.75 156.706C343.204 157.025 343.737 157.184 344.348 157.184C344.75 157.184 345.114 157.114 345.442 156.975C345.769 156.835 346.046 156.634 346.273 156.372C346.5 156.11 346.662 155.796 346.758 155.429H348.303C348.216 156.023 348 156.558 347.655 157.033C347.314 157.505 346.862 157.88 346.299 158.16C345.741 158.435 345.09 158.572 344.348 158.572ZM351.688 158.467C351.365 158.467 351.088 158.352 350.857 158.12C350.625 157.889 350.51 157.612 350.51 157.289C350.51 156.966 350.625 156.689 350.857 156.457C351.088 156.226 351.365 156.11 351.688 156.11C352.011 156.11 352.289 156.226 352.52 156.457C352.751 156.689 352.867 156.966 352.867 157.289C352.867 157.503 352.812 157.699 352.703 157.878C352.599 158.057 352.457 158.201 352.278 158.31C352.103 158.415 351.907 158.467 351.688 158.467Z" fill="#393536"/>
<path d="M356.556 158.363V144.952H358.18V156.922H364.414V158.363H356.556ZM370.679 148.305V149.615H365.466V148.305H370.679ZM366.985 145.895H368.531V155.482C368.531 155.918 368.594 156.245 368.721 156.464C368.852 156.678 369.018 156.822 369.218 156.896C369.423 156.966 369.64 157.001 369.867 157.001C370.037 157.001 370.177 156.992 370.286 156.975C370.395 156.953 370.482 156.935 370.548 156.922L370.862 158.31C370.757 158.35 370.611 158.389 370.423 158.428C370.235 158.472 369.998 158.494 369.709 158.494C369.273 158.494 368.845 158.4 368.426 158.212C368.011 158.024 367.666 157.738 367.391 157.354C367.121 156.97 366.985 156.486 366.985 155.901V145.895ZM376.693 158.572C375.855 158.572 375.115 158.36 374.473 157.937C373.831 157.509 373.329 156.907 372.967 156.13C372.605 155.348 372.424 154.425 372.424 153.36C372.424 152.304 372.605 151.387 372.967 150.61C373.329 149.833 373.834 149.233 374.48 148.809C375.126 148.386 375.872 148.174 376.719 148.174C377.374 148.174 377.891 148.283 378.271 148.501C378.655 148.715 378.948 148.96 379.148 149.235C379.353 149.505 379.513 149.728 379.626 149.903H379.757V144.952H381.303V158.363H379.81V156.817H379.626C379.513 157.001 379.351 157.232 379.142 157.511C378.932 157.786 378.633 158.033 378.245 158.251C377.856 158.465 377.339 158.572 376.693 158.572ZM376.902 157.184C377.522 157.184 378.046 157.023 378.474 156.699C378.902 156.372 379.227 155.92 379.45 155.344C379.672 154.763 379.783 154.093 379.783 153.334C379.783 152.583 379.674 151.926 379.456 151.363C379.238 150.795 378.915 150.355 378.487 150.04C378.059 149.722 377.531 149.562 376.902 149.562C376.248 149.562 375.702 149.73 375.265 150.066C374.833 150.398 374.508 150.85 374.29 151.422C374.076 151.989 373.969 152.627 373.969 153.334C373.969 154.05 374.078 154.7 374.296 155.285C374.519 155.866 374.846 156.328 375.278 156.673C375.715 157.014 376.256 157.184 376.902 157.184ZM385.474 158.467C385.151 158.467 384.873 158.352 384.642 158.12C384.411 157.889 384.295 157.612 384.295 157.289C384.295 156.966 384.411 156.689 384.642 156.457C384.873 156.226 385.151 156.11 385.474 156.11C385.797 156.11 386.074 156.226 386.305 156.457C386.537 156.689 386.652 156.966 386.652 157.289C386.652 157.503 386.598 157.699 386.489 157.878C386.384 158.057 386.242 158.201 386.063 158.31C385.888 158.415 385.692 158.467 385.474 158.467Z" fill="#393536"/>
<path d="M396.89 148.305C396.811 147.641 396.493 147.126 395.934 146.76C395.375 146.393 394.69 146.21 393.878 146.21C393.284 146.21 392.765 146.306 392.319 146.498C391.879 146.69 391.534 146.954 391.285 147.29C391.04 147.626 390.918 148.008 390.918 148.436C390.918 148.794 391.003 149.102 391.174 149.359C391.348 149.612 391.571 149.824 391.841 149.994C392.112 150.16 392.396 150.298 392.693 150.407C392.989 150.512 393.262 150.597 393.511 150.662L394.873 151.029C395.222 151.121 395.611 151.247 396.039 151.409C396.471 151.57 396.883 151.791 397.276 152.07C397.673 152.345 398.001 152.699 398.258 153.131C398.516 153.563 398.645 154.093 398.645 154.722C398.645 155.447 398.455 156.101 398.075 156.686C397.7 157.271 397.15 157.736 396.425 158.081C395.705 158.426 394.829 158.598 393.799 158.598C392.839 158.598 392.007 158.443 391.304 158.133C390.606 157.824 390.056 157.391 389.654 156.837C389.257 156.283 389.032 155.639 388.98 154.905H390.656C390.7 155.412 390.87 155.831 391.167 156.163C391.468 156.49 391.848 156.734 392.306 156.896C392.769 157.053 393.267 157.132 393.799 157.132C394.419 157.132 394.976 157.031 395.469 156.83C395.962 156.625 396.353 156.342 396.641 155.979C396.929 155.613 397.073 155.185 397.073 154.696C397.073 154.251 396.949 153.888 396.7 153.609C396.451 153.329 396.124 153.102 395.718 152.928C395.312 152.753 394.873 152.6 394.402 152.469L392.752 151.998C391.704 151.697 390.875 151.267 390.263 150.708C389.652 150.149 389.347 149.418 389.347 148.515C389.347 147.764 389.55 147.109 389.956 146.55C390.366 145.987 390.916 145.55 391.606 145.241C392.3 144.926 393.075 144.769 393.93 144.769C394.795 144.769 395.563 144.924 396.235 145.234C396.907 145.54 397.44 145.959 397.833 146.491C398.23 147.024 398.44 147.628 398.461 148.305H396.89ZM405.479 148.305V149.615H400.267V148.305H405.479ZM401.786 145.895H403.331V155.482C403.331 155.918 403.395 156.245 403.521 156.464C403.652 156.678 403.818 156.822 404.019 156.896C404.224 156.966 404.44 157.001 404.667 157.001C404.838 157.001 404.977 156.992 405.086 156.975C405.195 156.953 405.283 156.935 405.348 156.922L405.663 158.31C405.558 158.35 405.412 158.389 405.224 158.428C405.036 158.472 404.798 158.494 404.51 158.494C404.074 158.494 403.646 158.4 403.227 158.212C402.812 158.024 402.467 157.738 402.192 157.354C401.921 156.97 401.786 156.486 401.786 155.901V145.895ZM407.804 158.363V148.305H409.349V158.363H407.804ZM408.589 146.629C408.288 146.629 408.029 146.526 407.81 146.321C407.596 146.116 407.489 145.869 407.489 145.581C407.489 145.293 407.596 145.046 407.81 144.841C408.029 144.636 408.288 144.533 408.589 144.533C408.891 144.533 409.148 144.636 409.362 144.841C409.58 145.046 409.69 145.293 409.69 145.581C409.69 145.869 409.58 146.116 409.362 146.321C409.148 146.526 408.891 146.629 408.589 146.629ZM413.306 158.467C412.983 158.467 412.705 158.352 412.474 158.12C412.243 157.889 412.127 157.612 412.127 157.289C412.127 156.966 412.243 156.689 412.474 156.457C412.705 156.226 412.983 156.11 413.306 156.11C413.629 156.11 413.906 156.226 414.137 156.457C414.369 156.689 414.484 156.966 414.484 157.289C414.484 157.503 414.43 157.699 414.321 157.878C414.216 158.057 414.074 158.201 413.895 158.31C413.72 158.415 413.524 158.467 413.306 158.467Z" fill="#393536"/>
<defs>
<linearGradient id="paint0_linear_1_21" x1="197.392" y1="-9.14905" x2="475.757" y2="129.394" gradientUnits="userSpaceOnUse">
<stop stop-color="#9F401E"/>
<stop offset="0.423464" stop-color="#9F401E"/>
<stop offset="0.506089" stop-color="#E67652"/>
<stop offset="0.507661" stop-color="#E67652"/>
<stop offset="0.657542" stop-color="#DA6C47"/>
<stop offset="0.956983" stop-color="#D96C47"/>
<stop offset="1" stop-color="#D96C47"/>
</linearGradient>
<linearGradient id="paint1_linear_1_21" x1="195.747" y1="-5.84398" x2="474.113" y2="132.7" gradientUnits="userSpaceOnUse">
<stop stop-color="#9F401E"/>
<stop offset="0.423464" stop-color="#9F401E"/>
<stop offset="0.506089" stop-color="#E67652"/>
<stop offset="0.507661" stop-color="#E67652"/>
<stop offset="0.657542" stop-color="#DA6C47"/>
<stop offset="0.956983" stop-color="#D96C47"/>
<stop offset="1" stop-color="#D96C47"/>
</linearGradient>
</defs>
</svg>
